# xmcd
#
# Track frame offsets:
# 150
# 17222
# 32385
# 51027
# 66590
# 83378
# 100475
# 114480
# 131948
# 148345
# 167008
#
# Disc length: 2559 seconds
#
#
# Revision: 0
# Processed by: cddbd v1.5.1PL2 Copyright (c) Steve Scherf et al.
# Submitted via: FreeRIP 2.50 
#
DISCID=9809fd0b
DTITLE=Sarah Buxton - Sarah Buxton
DYEAR=2006
DGENRE=Folk
TTITLE0=American Daughters
TTITLE1=Cowboys
TTITLE2=Full Grown Woman
TTITLE3=That Kind of Day
TTITLE4=Innocence
TTITLE5=Love Is A Trip
TTITLE6=Back Home
TTITLE7=He Just Doesn't Get It
TTITLE8=Shine On
TTITLE9=Crazy Dream
TTITLE10=Stupid Boy
EXTD=
EXTT0=
EXTT1=
EXTT2=
EXTT3=
EXTT4=
EXTT5=
EXTT6=
EXTT7=
EXTT8=
EXTT9=
EXTT10=
PLAYORDER=
